<svg xmlns="http://www.w3.org/2000/svg" viewBox="0 0 86.31 86.31"><defs><style>.cls-1{fill:#b89a6a;}</style></defs><g id="Layer_2" data-name="Layer 2"><g id="Layer_1-2" data-name="Layer 1"><path class="cls-1" d="M86,42.9a42.15,42.15,0,0,0-3.32-16.31A42.82,42.82,0,0,0,73.46,13l.08-.48-.47.09A42.46,42.46,0,0,0,59.89,3.74,43.09,43.09,0,0,0,43.43.38L43.16,0l-.27.38a41.57,41.57,0,0,0-16,3.22A42.2,42.2,0,0,0,13.2,12.66l-.49-.08.08.48A42.42,42.42,0,0,0,.38,42.89L0,43.17l.38.26a42.34,42.34,0,0,0,12.4,29.84l-.08.48.48-.09a43.13,43.13,0,0,0,13,8.79,38.56,38.56,0,0,0,7.69,2.49H34a39.79,39.79,0,0,0,8.91,1l.25.35.26-.35a40,40,0,0,0,8.93-1,39.27,39.27,0,0,0,7.36-2.3,41.62,41.62,0,0,0,13.67-9.18l.44.07-.07-.44A42.63,42.63,0,0,0,86,43.41l.35-.26ZM73.27,14.19a41.7,41.7,0,0,1,8.26,12.36l-11,4.66ZM43.45,63.67,29,57.93l-.07-.26L22.81,43.31l5.91-14.68,14.16-6.12.11.07,14.47,5.74,0,.14,6.26,14.23-.1.2L58,57.4Zm14.11-5-3.39,10.8-9.58-5.21ZM42.25,64.26l-9.84,4.88-3-10ZM21.65,43.12l.06.15L16.26,53.46,1.69,43.15,16.05,32.48ZM16.94,32,27.5,29,22.23,42.09Zm5.27,12.39,5.56,13.06L17.15,53.91Zm6.93-17.07,3.3-10.62,9.34,5.17Zm15-5.41,9.83-4.88,3.15,10Zm14.63,6.83L69.18,32.3l-4.84,9.27Zm5.61,15.11L69.59,54,59.21,57ZM65,43l-.1-.22,5.21-10L84.62,43.16,70.48,53.52Zm4.54-11.59L58.4,27.63l-.14-.06-3.4-10.81,17.48-3.05ZM59.94,4.86a41.46,41.46,0,0,1,11.91,7.93l-16.8,2.93ZM59,4.47l-4.9,10.9-10-14A42.14,42.14,0,0,1,59,4.47ZM43.16,1.7,53.48,16.18,43,21.38l-.06,0-10-5.56Zm-1-.31L32.26,15,27.73,4.33A40.55,40.55,0,0,1,42.15,1.39ZM26.81,4.71l4.53,10.68-16.9-2.55A41.4,41.4,0,0,1,26.81,4.71ZM31.5,16.42,28,27.84,16.62,31.1,13.9,13.77ZM13,14.29l2.61,16.65L4.8,26.55A41.77,41.77,0,0,1,13,14.29ZM4.42,27.46l10.79,4.4L1.39,42.14A41.44,41.44,0,0,1,4.42,27.46Zm-3,16.69,14.06,10-10.93,5A41.37,41.37,0,0,1,1.39,44.15ZM13,72.05A40.82,40.82,0,0,1,4.91,60l10.88-5Zm3.85-17.2L28.2,58.68l3.26,10.77L13.91,72.53Zm9.31,26.49a42.6,42.6,0,0,1-11.75-7.89l16.86-3Zm8,2.63H34a38.33,38.33,0,0,1-7-2.22l5.14-10.92L42.19,85A38,38,0,0,1,34.17,84Zm9,.65L32.84,70l10.6-5.26,10.29,5.59Zm9-.65a38.54,38.54,0,0,1-8,1L54.35,71.19l4.51,10.72A38.45,38.45,0,0,1,52.13,84Zm7.65-2.44L55.26,70.81l16.87,2.47A40.75,40.75,0,0,1,59.78,81.53ZM55.11,69.79,58.68,58.4l.08-.2,11.15-3.3,2.71,17.45Zm18.44,2.06L70.94,55.06l10.74,4.38A41,41,0,0,1,73.55,71.85Zm8.5-13.33L71.32,54.14,85,44.15A41.23,41.23,0,0,1,82.05,58.52ZM70.89,32.13l11-4.67a41.22,41.22,0,0,1,3,14.72Z"/><polygon class="cls-1" points="53.73 70.36 43.17 84.62 32.84 70.03 43.44 64.77 53.73 70.36"/><path class="cls-1" d="M72.13,73.28a40.75,40.75,0,0,1-12.35,8.25L55.26,70.81Z"/><polygon class="cls-1" points="57.56 58.67 54.17 69.47 44.59 64.26 57.56 58.67"/><path class="cls-1" d="M59,4.47l-4.9,10.9-10-14A42.14,42.14,0,0,1,59,4.47Z"/><polygon class="cls-1" points="72.34 13.71 69.49 31.36 58.4 27.63 58.26 27.57 54.86 16.76 72.34 13.71"/><polygon class="cls-1" points="84.62 43.16 70.48 53.52 64.95 42.95 64.85 42.73 70.06 32.75 84.62 43.16"/><path class="cls-1" d="M31.25,70.49,26.14,81.34a42.6,42.6,0,0,1-11.75-7.89Z"/><path class="cls-1" d="M15.21,31.86,1.39,42.14a41.44,41.44,0,0,1,3-14.68Z"/><polygon class="cls-1" points="27.77 57.49 17.15 53.91 22.21 44.43 27.77 57.49"/><polygon class="cls-1" points="31.5 16.42 27.96 27.84 16.62 31.1 13.9 13.77 31.5 16.42"/></g></g></svg>