<svg id="Layer_1" data-name="Layer 1" xmlns="http://www.w3.org/2000/svg" viewBox="0 0 842 842">
  <g id="Layer_2" data-name="Layer 2">
    <g id="Layer_1-2" data-name="Layer 1-2">
      <path d="M162.6,431.5l-37.8-65.4,2.7-1.7a.5.5,0,0,0,.2-.8.5.5,0,0,0-.5-.3H104.6a.6.6,0,0,0-.6.6l.3.5,2.8,1.7L69.3,431.5l-4.7,1.6a.8.8,0,0,0-.5.7c.1.3.4.6.7.5h29a.6.6,0,0,0,.6-.6.5.5,0,0,0-.3-.5l-5.5-3.5,10.1-17.6h34.4l10.2,17.6-5.6,3.5a.7.7,0,0,0-.2.8c.2.2.3.3.5.3h29a.5.5,0,0,0,.7-.5c.1-.3-.1-.6-.5-.7h0ZM105.8,400l10.1-17.5L126.1,400Z"/>
      <path d="M510.3,431.5l-37.8-65.4,2.8-1.7a.5.5,0,0,0,.2-.8.5.5,0,0,0-.5-.3H452.3a.5.5,0,0,0-.5.6.8.8,0,0,0,.2.5l2.8,1.7L417,431.5l-4.7,1.7a.5.5,0,0,0-.2.8.3.3,0,0,0,.3.3h29.2a.6.6,0,0,0,.6-.6.5.5,0,0,0-.3-.5l-5.6-3.5,9.7-16.8h35.3l9.7,16.8-5.6,3.5a.7.7,0,0,0-.2.8c.2.2.3.3.5.3h29.2a.6.6,0,0,0,.5-.7.5.5,0,0,0-.3-.4Zm-57.2-30.7,10.6-18.4,10.6,18.4Z"/>
      <path d="M287.8,433.2c.6.2.4,1.1-.3,1.1H260.2c-.3.1-.6-.2-.7-.5a.7.7,0,0,1,.3-.6l3.3-2.5-30.8-31-7.2,5.6v25.1l3.7,2.8a.6.6,0,0,1,.2.8.7.7,0,0,1-.6.3H205.9c-.3.1-.6-.2-.7-.5a.7.7,0,0,1,.3-.6l3.7-2.8V367.2l-3.7-2.8a.6.6,0,0,1-.2-.8.9.9,0,0,1,.6-.3h22.5a.8.8,0,0,1,.7.5.6.6,0,0,1-.3.6l-3.7,2.8v22.9l31.3-23.7-2.8-2a.6.6,0,0,1-.2-.8.9.9,0,0,1,.6-.3h27.6c.3.1.6.4.5.7s-.1.3-.3.4l-8.1,3.4-30.6,23.6,38.4,39Z"/>
      <path d="M654,363.3H631.4a.8.8,0,0,0-.7.5.6.6,0,0,0,.3.6l3.8,2.8v63.2l-3.8,2.8a.7.7,0,0,0-.2.8l.6.3H654a.6.6,0,0,0,.6-.6.5.5,0,0,0-.3-.5l-3.7-2.8V367.2l3.7-2.8a.5.5,0,0,0,.2-.8A.5.5,0,0,0,654,363.3Z"/>
      <path d="M737.1,362.4H681.6a.5.5,0,0,0-.5.7.4.4,0,0,0,.1.3l3.7,2.8v63.3l-3.7,2.8a.6.6,0,0,0,.1.9h55.8c22.4,0,40.7-15.8,40.7-35.5S759.5,362.4,737.1,362.4Zm0,57.2H700.8V376.1h36.3c13.7,0,24.8,9.8,24.8,21.7S750.8,419.6,737.1,419.6Z"/>
      <path d="M554.1,420.7V367.2l3.8-2.8a.5.5,0,0,0,.2-.8.7.7,0,0,0-.6-.3H534.9a.8.8,0,0,0-.7.5.6.6,0,0,0,.3.6l3.7,2.8v63.2l-3.7,2.8a.7.7,0,0,0-.2.8l.6.3H600l3.4,3.4a.7.7,0,0,0,.9,0c.1-.1.1-.2.1-.4V417.7a.6.6,0,0,0-.5-.6h-.5l-3.4,3.5Z"/>
      <path d="M389.4,430.2l3.4,3.1a.7.7,0,0,1,0,.9H370.5a.6.6,0,0,1-.4-.7.4.4,0,0,1,.1-.3l3.5-3.1V401.4H320.4v28.8l3.4,3.1a.7.7,0,0,1,0,.9H301.6a.5.5,0,0,1-.5-.6c0-.2,0-.3.1-.4l3.5-3v-63l-3.5-3a.5.5,0,0,1,.1-.8l.3-.2h21.9a.8.8,0,0,1,.5.7l-.2.3-3.4,3v19.9h53.3V367.3l-3.5-3a.6.6,0,0,1,0-.8l.3-.2h22a.8.8,0,0,1,.5.7l-.2.3-3.4,3Z"/>
      <path d="M166.5,377.4l-6.6-1.4,1.4-27.7h15.9Z"/>
      <path d="M434.9,272.4l-4.5-10.9H411.5l-4.6,10.9c-17.2,2.4-27.9,8.4-28,15.9v11.1c0,5.1,4.6,9.3,13.1,12.4a97.8,97.8,0,0,0,58,0c8.5-3.1,13.1-7.5,13.1-12.4V288.2C462.9,280.8,452.3,274.8,434.9,272.4Zm19.4,21.5a69.2,69.2,0,0,1-33.5,7,69.2,69.2,0,0,1-33.5-7,46.4,46.4,0,0,1,16.2-5.5,80.5,80.5,0,0,1,8.4-1.1h1.3l7.6-18.1,7.7,17.8h1.2c2.9.3,5.7.6,8.4,1.1A47,47,0,0,1,454.3,293.9Z"/>
      <path d="M841,429.6a67.9,67.9,0,0,1-.4,21.1,53.3,53.3,0,0,1-2.8,10.4A59.4,59.4,0,0,1,819,486.8a83.9,83.9,0,0,1-18,11.3,114.5,114.5,0,0,1-19.8,7.3,177.3,177.3,0,0,1-20.5,4.2c-6.4,1-13.1,1.7-20.8,2.2-6,.3-12.7.5-20.8.4a437.4,437.4,0,0,1-65.6-6.2l-.6.6a39.8,39.8,0,0,1-8.2,6.5,68.6,68.6,0,0,1-19.5,7.3,118,118,0,0,1-20.5,3.1c-6.1.5-12.1.8-17.8.8h-3a180.2,180.2,0,0,1-23.2-2.1l-5.1-1h-.5v-.4a20.2,20.2,0,0,0,.9-3.3l.3-.8v-.3h.4c1.8.5,3.6.8,5.3,1.1a163.4,163.4,0,0,0,21.9,2.6,173.5,173.5,0,0,0,20.4,0,122.4,122.4,0,0,0,20.1-2.2,64.2,64.2,0,0,0,19.1-6.4,33.5,33.5,0,0,0,8.2-5.7l-15-2.6c-24.7-4.8-50.9-11.4-80-20.1-7-2-13.5-3.6-19.7-4.9a131,131,0,0,0-19.8-2.7,42.4,42.4,0,0,0-9.4.5c-3,.5-5.2,1.8-5.5,3.1s.1,4.5,1.7,7.3a31.1,31.1,0,0,0,5.8,7.2c4,3.8,9,7.3,16.2,11.3l4.5,2.4,7.8,3.5,1.3.5-1.3.3-7.9,1.9h-.3l-7-3.4h-.2l-.3-.2a78.9,78.9,0,0,1-17.1-11.5,38,38,0,0,1-7.2-8.7,20.6,20.6,0,0,1-2.3-5.5,12.1,12.1,0,0,1-.1-6.8l.2-.5.5-1.4,1.1-1.6a12.8,12.8,0,0,1,2.9-2.3,20.2,20.2,0,0,1,5.8-2.1,46.2,46.2,0,0,1,11.1-.8,147.5,147.5,0,0,1,20.9,2.7c6.5,1.2,13.1,2.8,20.3,4.7,12.9,3.7,26.2,7.4,39.5,10.7s26.9,6.3,40,8.8c6.4,1.3,12.7,2.4,18.9,3.4l.6-1.1.8.3-.5,1a431.2,431.2,0,0,0,61.1,5.8c8.1.2,14.4.1,20.2-.2s13.8-.9,20.2-1.8c15.1-2.1,27.7-5.4,38.6-10.3,13.3-5.9,23.7-14.4,30.2-24.5s9.6-23.7,8.2-37.8a96.8,96.8,0,0,0-6.9-27.4c-2.1,4.2-4.5,8.4-7.3,12.9A192.5,192.5,0,0,1,803.6,441l-.7-.5c3-4,6.1-8.4,9-12.8s5.1-8,8.1-13.2a119.8,119.8,0,0,0,6.9-13.9l.9-2.1-3-6.6c-3.1-6.1-6.5-12-10.2-17.8s-7.4-11.2-11.7-16.8l.7-.5c10,11.9,17.7,22.9,23.6,33.8l2.1,4.2c1.1-2.9,2.1-5.8,3-8.6,3.3-10.8,4.6-20.9,4-29.9a52.5,52.5,0,0,0-9.3-27.8c-5.1-7.6-12.6-14.1-22.1-19.5a94.1,94.1,0,0,0-13.7-6.2,102.6,102.6,0,0,0-14.6-4.4,180.7,180.7,0,0,0-30.2-4.7,287.3,287.3,0,0,0-30.8-.7,455.7,455.7,0,0,0-61.7,6.2c-18.4,2.8-37.8,6.8-60.9,12.4-27.4,6.6-53.8,15-82.3,13.4-11.4-.6-23.3-4.7-29.7-14.1a25.9,25.9,0,0,1-3.4-21.8c0,7.6,1.1,15.6,5.8,21.5s9.1,7.2,14.7,8.8c12.1,3.3,24.6,1.1,36.8-.4,19.5-2.3,37.7-8.4,56.5-13.5,47.1-12.6,86.5-19.1,123.9-20.3a304.3,304.3,0,0,1,31.7.8,186.3,186.3,0,0,1,31.5,5.1,115.3,115.3,0,0,1,15.5,4.6,93.4,93.4,0,0,1,14.6,7c10.3,5.9,18.3,13.3,23.9,22a61,61,0,0,1,9.5,31,88.8,88.8,0,0,1-5.4,31.5c-1.4,3.9-3,7.7-4.9,11.8A103.2,103.2,0,0,1,841,429.6Z"/>
      <path d="M1,429.6a71.1,71.1,0,0,0,.4,21.1,61.4,61.4,0,0,0,2.8,10.4A59.4,59.4,0,0,0,23,486.8a86.4,86.4,0,0,0,18,11.3,117.6,117.6,0,0,0,19.8,7.3,181.7,181.7,0,0,0,20.5,4.2c6.4,1,13.1,1.7,20.8,2.2,6,.3,12.7.5,20.8.4a437.4,437.4,0,0,0,65.6-6.2l.6.6a42.6,42.6,0,0,0,8.2,6.5,68.6,68.6,0,0,0,19.5,7.3,119.5,119.5,0,0,0,20.5,3.1c6.1.5,12,.8,17.8.8H258a181.7,181.7,0,0,0,23.3-2.1l5.1-1h.5v-.4l-1-3.3a2.4,2.4,0,0,0-.2-.8l-.2-.3h-.3c-1.9.5-3.6.8-5.3,1.1a159.7,159.7,0,0,1-21.9,2.6,173.6,173.6,0,0,1-20.4,0,123.6,123.6,0,0,1-20.1-2.2,65.2,65.2,0,0,1-19.1-6.4,35.5,35.5,0,0,1-8.2-5.7l15-2.6c24.7-4.8,50.8-11.4,80-20.1,7-2,13.4-3.6,19.7-4.9a132.7,132.7,0,0,1,19.8-2.7,42.1,42.1,0,0,1,9.4.5c3,.5,5.2,1.8,5.5,3.1s-.1,4.5-1.7,7.3a31.1,31.1,0,0,1-5.8,7.2c-4,3.8-9,7.3-16.2,11.3l-4.6,2.4c-2.4,1.2-5.1,2.4-7.7,3.5l-1.3.5,1.3.3,7.9,1.9h.2c2.3-1,4.6-2.1,7.1-3.4h.2l.3-.2a78.9,78.9,0,0,0,17.1-11.5,33.4,33.4,0,0,0,7.2-8.7,20.6,20.6,0,0,0,2.3-5.5,12.1,12.1,0,0,0,.1-6.8l-.2-.5a7.8,7.8,0,0,0-.5-1.4l-1.1-1.6a10.9,10.9,0,0,0-2.9-2.3,19.2,19.2,0,0,0-5.8-2.1,45.8,45.8,0,0,0-11.1-.8,147.5,147.5,0,0,0-20.9,2.7c-6.5,1.2-13.1,2.8-20.3,4.7-12.9,3.7-26.2,7.4-39.6,10.7s-26.8,6.3-39.9,8.8c-6.4,1.3-12.7,2.4-18.9,3.4l-.6-1.1-.8.3.4,1a429.8,429.8,0,0,1-61,5.8c-8.1.2-14.4.1-20.3-.2s-13.8-.9-20.1-1.8c-15.1-2.1-27.7-5.4-38.6-10.3C30.4,486.5,20,478,13.5,467.9s-9.6-23.7-8.2-37.8a103.8,103.8,0,0,1,6.8-27.4c2.2,4.2,4.6,8.4,7.4,12.9a192.5,192.5,0,0,0,18.7,25.1l.7-.5c-3-4-6.1-8.4-9-12.8s-5.1-8-8.1-13.2-4.8-9.1-6.9-13.9l-.9-2.1c.9-2.2,2-4.4,3-6.6,3.1-6.1,6.5-12,10.2-17.8s7.4-11.2,11.7-16.8l-.7-.5c-10,11.9-17.7,22.9-23.6,33.8l-2.1,4.2c-1.2-2.9-2.1-5.8-3-8.6C6.2,375.1,4.9,365,5.5,356a54.3,54.3,0,0,1,9.3-27.8c5.1-7.6,12.6-14.1,22.1-19.5a99.1,99.1,0,0,1,13.7-6.2,106.6,106.6,0,0,1,14.6-4.4,180.7,180.7,0,0,1,30.2-4.7,287.9,287.9,0,0,1,30.8-.7,455.7,455.7,0,0,1,61.7,6.2c18.4,2.8,37.7,6.8,60.9,12.4,27.4,6.6,53.8,15,82.3,13.4,11.4-.6,23.3-4.7,29.7-14.1a25.9,25.9,0,0,0,3.4-21.8c0,7.6-1.1,15.6-5.8,21.5s-9.1,7.2-14.7,8.8c-12.1,3.3-24.6,1.1-36.8-.4-19.5-2.3-37.7-8.4-56.5-13.5-47.1-12.6-86.5-19.1-124-20.3a303.1,303.1,0,0,0-31.6.8,188,188,0,0,0-31.5,5.1A136.2,136.2,0,0,0,48,295.7a102.8,102.8,0,0,0-14.6,7c-10.3,5.9-18.3,13.3-23.9,22a61,61,0,0,0-9.5,31c-.3,10,1.5,20.3,5.4,31.5,1.4,3.9,3,7.7,4.9,11.8A106.2,106.2,0,0,0,1,429.6Z"/>
      <path d="M562.8,566.8v-.2l-.4.2.3-.3a1.4,1.4,0,0,0-.2-.6v-.2h0a77.7,77.7,0,0,1-1.3-43.8l.7-2.5h.1a5.8,5.8,0,0,0,.5-1.4,2.7,2.7,0,0,0,.3-1.2l.2-.5V516a8.8,8.8,0,0,0-.2-3.6c-1.8-7.1-11.4-10.5-21.9-7.8l-10.4,2.5c-2.5.6-4.9,1.2-7.6,1.7a486.1,486.1,0,0,1-203.8,0c-3-.6-5.4-1.1-7.6-1.7L301,504.6c-10.4-2.7-20,.7-21.8,7.8a8.4,8.4,0,0,0-.2,3.5v.8a6.5,6.5,0,0,1,.4,1.3c.2.5.3,1,.5,1.4h.1c.2.7.4,1.6.7,2.5a76.8,76.8,0,0,1-1.3,43.8v.2a1.4,1.4,0,0,0-.2.6h-.1v.2c-1.8,7,5,14.6,15.4,17.3a28,28,0,0,0,7,.9,18,18,0,0,0,10.4-2.7l2-1.3-.8-2.3a83.6,83.6,0,0,1-2.9-11.2A486.1,486.1,0,0,0,421,580.2a485.2,485.2,0,0,0,110.7-12.7,70.8,70.8,0,0,1-2.9,11.2L528,581l2,1.3a18.2,18.2,0,0,0,10.4,2.7,27.4,27.4,0,0,0,7-.9C557.8,581.4,564.6,573.8,562.8,566.8Zm-277.7,1.6v-.2c0-.1.1-.2.1-.3h.1l.8-1.2c2.1-2,7-3.4,13.4-1.7l.8.2,3.5.9a96.7,96.7,0,0,0,2.8,12.1,17.9,17.9,0,0,1-10.5.1c-7.3-2-11.7-6.8-11-9.9Zm2.6-9.5a85,85,0,0,0-.9-38.2c-.4-1.3-.7-2.3-.9-3.2l-.3-.9a5.2,5.2,0,0,0-.6-1.6,4.1,4.1,0,0,1,.1-1.1c.8-3.2,7-5.3,14.4-3.4l4,1,7.9,1.9A493.1,493.1,0,0,0,421,525.8a492.5,492.5,0,0,0,109.6-12.4l7.9-1.9,2.7-.7,1.3-.3c7.4-1.9,13.6.2,14.4,3.4a3.4,3.4,0,0,1,.1,1c-.1.4-.4,1-.6,1.7l-.3.8a20.2,20.2,0,0,1-.9,3.3,85,85,0,0,0-.9,38.2,25.4,25.4,0,0,0-13.4,0l-6.2,1.6a485.6,485.6,0,0,1-227.4,0l-6.3-1.6a26.7,26.7,0,0,0-6.9-.9,23.5,23.5,0,0,0-6.4.9ZM538.2,566l3.6-1h.7c6.4-1.6,11.3-.3,13.4,1.7l.8,1.2h.1c0,.1.1.2.1.3v.2h0c.6,3.2-3.7,7.9-11,9.8a17.9,17.9,0,0,1-10.5-.1A81.8,81.8,0,0,0,538.2,566Z"/>
      <path d="M329.5,525.7l-5.1-1.3v27.4c7.8,2,15.5,3.7,23.3,5.2v-5.2c-6-1.1-12.1-2.5-18.2-3.9Z"/>
      <path d="M360.6,547.3l9.6,1.4v-5.3l-9.6-1.3V537c5.5.9,11.1,1.7,16.6,2.3v-5.2c-7.3-.8-14.5-1.9-21.8-3.1v27.4c7.4,1.3,14.8,2.3,22.2,3.2v-5.2c-5.7-.7-11.3-1.4-17-2.3Z"/>
      <path d="M429,536.5,415.9,564h5.8l2.9-6c4.7,0,9.4-.2,14.1-.4l2.8,5.8c2,0,3.9-.2,5.9-.3l-13.2-26.7Zm-2,16.2c1.6-3.2,3.1-6.4,4.6-9.6l4.6,9.3Z"/>
      <path d="M468.7,533.2c-8.2,1-14.5,7.6-14.5,15.6a12.7,12.7,0,0,0,12.6,12.8,6.1,6.1,0,0,0,1.9-.1c7.8-.9,14.4-8.5,14.4-16.3S476.3,532.2,468.7,533.2Zm0,23a7.9,7.9,0,0,1-9.1-6.5,7.6,7.6,0,0,1-.1-1.5c0-4.9,4.1-9.1,9.2-9.8s9.2,2.8,9.2,7.7A10.6,10.6,0,0,1,468.7,556.2Z"/>
      <path d="M512.4,525.7v19.1c-5.1-5.1-10.2-10.4-15.3-15.7l-5,.9v27.4l5.1-1V537.5l15.3,15.6,5.1-1.3V524.4Z"/>
      <path d="M33.1,485.2a76.1,76.1,0,0,1,31.6-8.6,92.3,92.3,0,0,1,33,4.6c21.4,6.9,40,21.7,53.2,39.6a128.4,128.4,0,0,0,21.8,22.4,85.5,85.5,0,0,0,27.2,14.7,64.9,64.9,0,0,0,15.1,2.8,58.3,58.3,0,0,0,15.6-.9c10.4-1.9,20.3-6.3,29.6-11.9a75.6,75.6,0,0,1-28.6,16.3,62.5,62.5,0,0,1-16.7,2.5,64.5,64.5,0,0,1-16.9-1.9,83,83,0,0,1-30.4-14.9A118.8,118.8,0,0,1,144,526a143.8,143.8,0,0,0-10.1-12.1,116.5,116.5,0,0,0-11.5-10.7,107.2,107.2,0,0,0-26.9-15.9,94.9,94.9,0,0,0-30.7-6.7A87.7,87.7,0,0,0,33.1,485.2Z"/>
      <path d="M810.4,485.2a75.7,75.7,0,0,0-31.6-8.6,92.3,92.3,0,0,0-33,4.6c-21.4,6.9-40,21.7-53.1,39.6a125.5,125.5,0,0,1-21.9,22.4,85,85,0,0,1-27.1,14.7,64.7,64.7,0,0,1-15.2,2.8,58.5,58.5,0,0,1-15.6-.9c-10.3-1.9-20.2-6.3-29.6-11.9a75.6,75.6,0,0,0,28.6,16.3,65.2,65.2,0,0,0,33.6.6,82.2,82.2,0,0,0,30.4-14.9A116.7,116.7,0,0,0,699.6,526a128.4,128.4,0,0,1,10-12.1,116.5,116.5,0,0,1,11.5-10.7A109,109,0,0,1,748,487.3a96.1,96.1,0,0,1,30.8-6.7A86.9,86.9,0,0,1,810.4,485.2Z"/>
      <path d="M126.1,275.5a77.5,77.5,0,0,1,25-13.8,96.5,96.5,0,0,1,14.1-3.4,116.7,116.7,0,0,1,14.4-1.3,154.1,154.1,0,0,1,28.8,2.4,217.7,217.7,0,0,1,27.9,6.6c18.2,5.4,35.9,12.2,53.4,19a51.7,51.7,0,0,0,12.8,3.5,77.7,77.7,0,0,0,13.6.9,68.4,68.4,0,0,0,13.6-1.7,31.8,31.8,0,0,0,12.5-5.8c-2.9,3.8-7.2,6.5-11.6,8.4a61.2,61.2,0,0,1-14.1,3.8c-9.6,1.3-19.7,1-29.3-2.2-17.9-5.8-35.6-12.2-53.4-17.6s-35.9-9.7-54.3-10.7a113.9,113.9,0,0,0-27.3,2.1A98,98,0,0,0,126.1,275.5Z"/>
      <path d="M714.9,275.5a77.5,77.5,0,0,0-25-13.8,95.2,95.2,0,0,0-14-3.4,139.5,139.5,0,0,0-14.5-1.3,154.8,154.8,0,0,0-28.8,2.4,226,226,0,0,0-27.9,6.6c-18.2,5.4-35.9,12.2-53.4,19a51.7,51.7,0,0,1-12.8,3.5,77.1,77.1,0,0,1-13.6.9,69.3,69.3,0,0,1-13.6-1.7,32.5,32.5,0,0,1-12.5-5.8c2.9,3.8,7.2,6.5,11.6,8.4a64,64,0,0,0,14.1,3.8c9.6,1.3,19.7,1,29.3-2.2,17.9-5.8,35.6-12.2,53.4-17.6s35.9-9.7,54.3-10.7a114.4,114.4,0,0,1,27.4,2.1A96.1,96.1,0,0,1,714.9,275.5Z"/>
    </g>
  </g>
</svg>
